<?xml version="1.0" encoding="UTF-8" standalone="no"?>
<!-- Created with Inkscape (http://www.inkscape.org/) -->

<svg
   width="179.32474mm"
   height="87.09404mm"
   viewBox="0 0 179.32474 87.09404"
   version="1.1"
   id="svg1"
   inkscape:version="1.4.2 (f4327f4, 2025-05-13)"
   sodipodi:docname="Logo Beetter.svg"
   xmlns:inkscape="http://www.inkscape.org/namespaces/inkscape"
   xmlns:sodipodi="http://sodipodi.sourceforge.net/DTD/sodipodi-0.dtd"
   xmlns="http://www.w3.org/2000/svg"
   xmlns:svg="http://www.w3.org/2000/svg">
  <sodipodi:namedview
     id="namedview1"
     pagecolor="#ffffff"
     bordercolor="#eeeeee"
     borderopacity="1"
     inkscape:showpageshadow="0"
     inkscape:pageopacity="0"
     inkscape:pagecheckerboard="0"
     inkscape:deskcolor="#505050"
     inkscape:document-units="mm"
     inkscape:zoom="1"
     inkscape:cx="337.5"
     inkscape:cy="542.5"
     inkscape:window-width="1920"
     inkscape:window-height="991"
     inkscape:window-x="2391"
     inkscape:window-y="-9"
     inkscape:window-maximized="1"
     inkscape:current-layer="layer1-8"
     inkscape:export-bgcolor="#ffffff00">
    <inkscape:page
       x="0"
       y="0"
       width="179.32474"
       height="87.09404"
       id="page2"
       margin="0"
       bleed="0" />
  </sodipodi:namedview>
  <defs
     id="defs1" />
  <g
     inkscape:groupmode="layer"
     id="layer1"
     inkscape:label="Logo"
     inkscape:export-filename="Logo Beetter (fond blanc).png"
     inkscape:export-xdpi="96"
     inkscape:export-ydpi="96"
     transform="translate(-17.594746,-193.93958)">
    <path
       id="path1-5"
       style="fill:#f5cb5c;fill-opacity:1;stroke:none;stroke-width:4.57111;stroke-linecap:round;stroke-opacity:0.433414;paint-order:markers stroke fill"
       d="m 181.27376,213.79141 -18.51131,-19.85182 -26.44782,6.10594 -7.93617,25.95719 18.51166,19.85124 26.44736,-6.10583 z m -37.72714,35.17966 -18.51131,-19.85182 -26.447813,6.10594 -7.936169,25.95719 18.511642,19.85124 26.44748,-6.10537 z m -49.330583,-15.08109 -18.511193,-19.85135 -26.447823,6.10594 -7.936273,25.95674 18.511759,19.85169 26.447361,-6.10583 z"
       inkscape:label="Hexagones" />
    <path
       id="path21-3"
       style="font-size:54.3668px;line-height:0px;font-family:Courgette;-inkscape-font-specification:'Courgette, Normal';text-align:center;letter-spacing:-1.5875px;word-spacing:2.4474px;text-orientation:upright;text-anchor:middle;stroke-width:1.60532;stroke-linecap:square;paint-order:markers stroke fill"
       d="m 62.085099,208.23587 a 0.75,0.75 0 0 0 -0.719852,0.56275 0.75,0.75 0 0 0 0.538985,0.91416 c 0,0 1.009136,0.29758 1.53324,1.07022 0.262052,0.38632 0.431844,0.87044 0.318326,1.64279 -0.105286,0.71635 -0.484597,1.68661 -1.362707,2.93161 -0.578396,-0.27368 -1.165595,-0.50785 -1.761133,-0.70177 -1.480853,-0.4822 -2.681021,-0.82622 -3.600297,-1.03249 -4.92668,-1.04584 -8.889213,-1.10796 -11.888163,-0.18604 -2.071836,0.64685 -2.632489,1.73928 -1.681551,3.27732 0.243408,0.39565 0.551169,0.76561 0.922941,1.11001 0.377252,0.32757 0.751166,0.55176 1.121378,0.67231 0.370289,0.1209 0.825703,0.0925 1.367359,-0.0847 1.915288,-0.62335 3.91949,-0.97612 6.012036,-1.05782 1.051956,-0.0297 2.11281,0.0274 3.182751,0.17105 1.092264,0.13229 2.109644,0.35151 3.05201,0.65836 0.959183,0.31234 1.753645,0.67338 2.383317,1.08314 2.052191,1.35689 2.708075,3.17131 1.968356,5.44308 -1.090416,3.34876 -3.606263,5.67493 -7.548377,6.97838 -3.612598,1.20604 -7.372843,1.32187 -11.280448,0.34727 2.511777,-2.56952 5.573364,-5.36949 9.184452,-8.4 0.500763,-0.39513 0.394498,-1.15586 -0.318327,-2.28152 -0.282935,-0.44575 -0.646973,-0.87095 -1.091923,-1.27641 -0.428125,-0.39997 -0.911552,-0.68765 -1.45004,-0.86299 -0.521675,-0.16989 -1.133326,-0.006 -1.83503,0.49092 -2.400831,1.72789 -4.661459,3.72581 -6.782532,5.99395 -1.091095,-4.31938 -2.739898,-7.64988 -4.742346,-9.82627 -1.775067,-1.92926 -3.922891,-2.92833 -6.072498,-2.75591 -0.716535,0.0575 -1.433682,0.24541 -2.13682,0.57206 -3.341123,1.55215 -4.5593,5.7711 -3.419947,10.05469 0.02257,0.0848 0.04638,0.16978 0.0708,0.25476 -0.983392,-0.28307 -2.188075,-0.43306 -3.44165,-0.25631 -2.134273,0.30091 -4.330827,1.82302 -4.918046,5.25187 -0.523494,3.05673 1.156816,5.73987 4.259688,7.34942 2.801227,1.45308 6.765426,2.17313 11.632882,1.97353 -0.463052,0.97316 -0.837817,1.86539 -1.12448,2.67632 -0.466534,1.31844 -0.676475,2.50618 -0.629935,3.56361 v 5.1e-4 c 0.127093,2.98209 1.88187,5.02332 5.264278,6.12469 0.486281,0.15834 -0.38148,4.18759 0.113688,4.3093 0.478579,0.11764 2.319668,-3.67078 2.806547,-3.58738 1.502236,0.25737 3.043781,0.35201 4.625041,0.28371 1.281265,-0.0481 2.539711,-0.22505 3.774446,-0.5302 1.25703,-0.31657 2.409096,-0.76926 3.457154,-1.35858 1.070362,-0.60069 2.002654,-1.34891 2.796728,-2.2443 0.81639,-0.90673 1.444468,-1.97739 1.883606,-3.21169 0.444612,-1.25113 0.497383,-2.52759 0.15813,-3.82923 -0.316935,-1.313 -1.058351,-2.49434 -2.224154,-3.54397 3.298716,-0.4707 6.212756,-1.53147 8.742102,-3.18327 2.757904,-1.78212 4.542199,-3.91889 5.353162,-6.40942 0.898634,-2.75977 0.733073,-5.19553 -0.496094,-7.30809 -0.453249,-0.76099 -1.071716,-1.49217 -1.856217,-2.19263 0.6088,-1.51751 1.258416,-2.40747 1.832446,-2.89801 0.593469,-0.50716 1.094095,-0.62191 1.560628,-0.60565 0.933065,0.0325 1.722893,0.73071 1.722893,0.73071 a 0.75,0.75 0 0 0 1.0604,-0.0315 0.75,0.75 0 0 0 -0.03101,-1.0604 c 0,0 -1.093169,-1.08091 -2.699577,-1.13688 -0.803204,-0.028 -1.736873,0.23595 -2.587955,0.96325 -0.753495,0.64391 -1.451899,1.62505 -2.078427,3.06803 -0.01427,-0.0102 -0.02854,-0.0203 -0.04289,-0.0305 -0.407174,-0.29077 -0.819098,-0.56026 -1.235583,-0.8077 0.902983,-1.31223 1.368248,-2.43461 1.513602,-3.42357 0.162794,-1.10761 -0.109525,-2.03963 -0.560689,-2.70474 -0.902326,-1.33021 -2.40037,-1.68 -2.40037,-1.68 a 0.75,0.75 0 0 0 -0.194304,-0.0238 z M 32.1014,214.56158 c 1.503218,-0.003 2.972602,0.77309 4.402315,2.32699 1.896143,2.06085 3.580561,5.52477 4.625557,10.16372 -1.026295,1.17846 -2.01822,2.42349 -2.975529,3.73517 -0.60375,0.82486 -1.167149,1.6359 -1.689819,2.43241 -4.380073,-1.99286 -7.091936,-5.04258 -8.419124,-8.09511 a 0.75,0.75 0 0 0 -0.05271,-0.12299 c -0.232367,-0.54982 -0.419898,-1.09935 -0.564307,-1.64228 -1.010838,-3.80041 0.08828,-7.14216 2.603459,-8.3106 0.696478,-0.32356 1.386877,-0.48594 2.070158,-0.48731 z m 95.69132,3.50263 c -0.47784,0 -0.91136,0.14162 -1.3007,0.42478 -0.81409,0.61941 -2.17679,3.16753 -4.08812,7.64501 h -2.09703 c -0.63711,0 -1.26523,0.25675 -1.88464,0.76998 -0.26546,0.23007 -0.48707,0.46898 -0.66404,0.71675 -0.15928,0.24777 -0.23875,0.46886 -0.23875,0.66353 0,0.17698 0.0265,0.34509 0.0796,0.50436 0.17698,0.53093 1.28293,0.88497 3.31815,1.06195 -3.6103,9.80443 -4.96383,16.2201 -4.06125,19.24637 0.76099,2.54845 2.56586,3.82251 5.41517,3.82251 1.64587,0 3.28315,-0.52216 4.91133,-1.56632 1.4335,-0.92027 2.38917,-1.89378 2.86701,-2.92023 0.35394,-0.54863 0.53071,-1.11459 0.53071,-1.69861 0,-0.6902 -0.25675,-1.03559 -0.76998,-1.03559 -0.24776,0 -0.54832,0.13296 -0.90227,0.39842 -0.33625,0.26547 -0.74328,0.56654 -1.22111,0.90279 -0.47783,0.31855 -1.03514,0.61045 -1.67225,0.87592 -0.63711,0.26546 -1.34521,0.3979 -2.1239,0.3979 -0.77869,0 -1.30951,-0.1681 -1.59267,-0.50436 -0.28316,-0.35395 -0.42478,-0.84044 -0.42478,-1.45986 0,-2.21218 1.01731,-6.07921 3.05253,-11.60084 l 1.80557,-4.67207 h 0.21239 c 5.52163,0 8.28218,-1.1681 8.28218,-3.50417 0,-0.37165 -0.25675,-0.55759 -0.76997,-0.55759 -0.49553,0 -0.91122,0.009 -1.24747,0.0269 l -1.51309,0.0264 c -0.67251,0.0177 -1.55737,0.0264 -2.65462,0.0264 h -0.63717 l 1.96422,-4.27364 c 0.21238,-0.46014 0.31885,-0.86716 0.31885,-1.22112 0,-0.6548 -0.28324,-1.24777 -0.84956,-1.7787 -0.24777,-0.23007 -0.53101,-0.40684 -0.84956,-0.53072 -0.31856,-0.12388 -0.71693,-0.18603 -1.19476,-0.18603 z m 17.92397,0 c -0.47784,0 -0.91135,0.14162 -1.3007,0.42478 -0.81409,0.61941 -2.17679,3.16753 -4.08812,7.64501 h -2.09703 c -0.63711,0 -1.26523,0.25675 -1.88464,0.76998 -0.26546,0.23007 -0.48655,0.46898 -0.66353,0.71675 -0.15927,0.24777 -0.23926,0.46886 -0.23926,0.66353 0,0.17698 0.0265,0.34509 0.0796,0.50436 0.17698,0.53093 1.28345,0.88497 3.31866,1.06195 -3.61029,9.80443 -4.96434,16.2201 -4.06176,19.24637 0.76099,2.54845 2.56587,3.82251 5.41517,3.82251 1.64587,0 3.28316,-0.52216 4.91133,-1.56632 1.43349,-0.92027 2.38917,-1.89378 2.86701,-2.92023 0.35395,-0.54863 0.53071,-1.11459 0.53071,-1.69861 0,-0.6902 -0.25623,-1.03559 -0.76946,-1.03559 -0.24776,0 -0.54883,0.13296 -0.90279,0.39842 -0.33625,0.26547 -0.74328,0.56654 -1.22111,0.90279 -0.47783,0.31855 -1.03514,0.61045 -1.67225,0.87592 -0.63711,0.26546 -1.34521,0.3979 -2.1239,0.3979 -0.77869,0 -1.30951,-0.1681 -1.59267,-0.50436 -0.28316,-0.35395 -0.42478,-0.84044 -0.42478,-1.45986 0,-2.21218 1.01732,-6.07921 3.05253,-11.60084 l 1.80557,-4.67207 h 0.21239 c 5.52163,0 8.28219,-1.1681 8.28219,-3.50417 0,-0.37165 -0.25676,-0.55759 -0.76998,-0.55759 -0.49554,0 -0.91122,0.009 -1.24747,0.0269 l -1.51309,0.0264 c -0.6725,0.0177 -1.55737,0.0264 -2.65462,0.0264 h -0.63717 l 1.96422,-4.27364 c 0.21238,-0.46014 0.31885,-0.86716 0.31885,-1.22112 0,-0.6548 -0.28324,-1.24777 -0.84956,-1.7787 -0.24776,-0.23007 -0.531,-0.40684 -0.84956,-0.53072 -0.31856,-0.12388 -0.71693,-0.18603 -1.19476,-0.18603 z m -63.116047,7.11429 c -2.583839,0 -5.141137,0.94702 -7.671883,2.84066 -1.168037,0.88488 -2.256675,1.92002 -3.265434,3.10575 -0.991062,1.16803 -1.858096,2.41561 -2.601392,3.74292 -0.743296,1.30962 -1.336264,2.67233 -1.778702,4.08813 -0.442438,1.3981 -0.699189,2.86728 -0.769979,4.40696 -0.106186,3.04398 0.725702,5.45048 2.495455,7.22023 1.575079,1.55738 3.663197,2.3363 6.264734,2.3363 4.406684,0 7.725059,-1.11513 9.954947,-3.34502 0.530926,-0.69021 0.796334,-1.50426 0.796334,-2.44223 0,-0.47783 -0.123788,-0.90218 -0.371553,-1.27382 -0.230068,-0.38935 -0.504134,-0.58446 -0.822689,-0.58446 -0.318556,0 -0.699094,0.2216 -1.141532,0.66404 -0.424741,0.42474 -0.982046,0.84043 -1.67225,1.24747 -1.946728,1.20343 -3.946721,1.80506 -5.999634,1.80506 -1.203432,0 -2.123961,-0.53082 -2.761071,-1.59267 -0.300858,-0.47783 -0.513288,-1.01783 -0.637171,-1.61954 -0.123885,-0.61941 -0.176863,-1.17672 -0.159163,-1.67225 0.0177,-0.49553 0.06202,-0.86689 0.132808,-1.11466 2.866999,-0.0354 5.55726,-0.49591 8.070309,-1.38079 1.221129,-0.44244 2.344913,-0.98192 3.37137,-1.61903 1.044154,-0.63711 1.937677,-1.35387 2.680973,-2.15025 0.760994,-0.81409 1.353963,-1.70813 1.778703,-2.68149 0.424739,-0.99106 0.645826,-2.06135 0.663526,-3.21169 0.0177,-1.16804 -0.150412,-2.17721 -0.504362,-3.02669 -1.008759,-2.49536 -3.026067,-3.74293 -6.052344,-3.74293 z m 24.055897,0 c -2.58384,0 -5.14114,0.94702 -7.671884,2.84066 -1.16804,0.88488 -2.256164,1.92002 -3.264917,3.10575 -0.991067,1.16803 -1.858615,2.41561 -2.601909,3.74292 -0.743293,1.30962 -1.335746,2.67233 -1.778186,4.08813 -0.442438,1.3981 -0.699188,2.86728 -0.769978,4.40696 -0.106186,3.04398 0.7257,5.45048 2.495454,7.22023 1.57508,1.55738 3.663201,2.3363 6.264734,2.3363 4.406686,0 7.725046,-1.11513 9.954946,-3.34502 0.53093,-0.69021 0.79634,-1.50426 0.79634,-2.44223 0,-0.47783 -0.12379,-0.90218 -0.37156,-1.27382 -0.23007,-0.38935 -0.50465,-0.58446 -0.8232,-0.58446 -0.31856,0 -0.69909,0.2216 -1.14154,0.66404 -0.42474,0.42474 -0.98204,0.84043 -1.67224,1.24747 -1.94673,1.20343 -3.94673,1.80506 -5.99964,1.80506 -1.203434,0 -2.12344,-0.53082 -2.760554,-1.59267 -0.300853,-0.47783 -0.513283,-1.01783 -0.63717,-1.61954 -0.123913,-0.61941 -0.176897,-1.17672 -0.159163,-1.67225 0.01769,-0.49553 0.06201,-0.86689 0.132808,-1.11466 2.867002,-0.0354 5.556749,-0.49591 8.069789,-1.38079 1.22113,-0.44244 2.34491,-0.98192 3.37137,-1.61903 1.04416,-0.63711 1.93819,-1.35387 2.68149,-2.15025 0.761,-0.81409 1.35396,-1.70813 1.77871,-2.68149 0.4247,-0.99106 0.64579,-2.06135 0.66352,-3.21169 0.0177,-1.16804 -0.15041,-2.17721 -0.50436,-3.02669 -1.00877,-2.49536 -3.02657,-3.74293 -6.05286,-3.74293 z m 59.90435,0 c -2.58384,0 -5.14113,0.94702 -7.67188,2.84066 -1.16803,0.88488 -2.25616,1.92002 -3.26492,3.10575 -0.99106,1.16803 -1.85861,2.41561 -2.60191,3.74292 -0.74329,1.30962 -1.33574,2.67233 -1.77818,4.08813 -0.44244,1.3981 -0.69919,2.86728 -0.76998,4.40696 -0.10619,3.04398 0.7257,5.45048 2.49545,7.22023 1.57508,1.55738 3.6632,2.3363 6.26474,2.3363 4.40668,0 7.72506,-1.11513 9.95495,-3.34502 0.53092,-0.69021 0.79633,-1.50426 0.79633,-2.44223 0,-0.47783 -0.12379,-0.90218 -0.37155,-1.27382 -0.23007,-0.38935 -0.50466,-0.58446 -0.82321,-0.58446 -0.31855,0 -0.69909,0.2216 -1.14153,0.66404 -0.42474,0.42474 -0.98204,0.84043 -1.67225,1.24747 -1.94673,1.20343 -3.94672,1.80506 -5.99963,1.80506 -1.20344,0 -2.12345,-0.53082 -2.76056,-1.59267 -0.30086,-0.47783 -0.51329,-1.01783 -0.63717,-1.61954 -0.12392,-0.61941 -0.1769,-1.17672 -0.15916,-1.67225 0.0177,-0.49553 0.062,-0.86689 0.1328,-1.11466 2.867,-0.0354 5.55675,-0.49591 8.0698,-1.38079 1.22113,-0.44244 2.34491,-0.98192 3.37137,-1.61903 1.04415,-0.63711 1.93819,-1.35387 2.68149,-2.15025 0.76099,-0.81409 1.35344,-1.70813 1.77818,-2.68149 0.42477,-0.99106 0.64638,-2.06135 0.66405,-3.21169 0.0177,-1.16804 -0.15041,-2.17721 -0.50437,-3.02669 -1.00875,-2.49536 -3.02658,-3.74293 -6.05286,-3.74293 z m 14.5526,0 c -0.79638,0 -1.57478,0.20378 -2.33577,0.61082 -0.37166,0.21237 -0.67272,0.45995 -0.90279,0.74311 -0.23007,0.28316 -0.3452,0.58423 -0.3452,0.90278 0.0177,0.30086 0.10635,0.51278 0.26562,0.63666 l 0.53072,0.37207 c 0.53095,0.35395 0.82336,0.95557 0.87643,1.80505 0,3.04398 -1.80539,9.00778 -5.41569,17.89194 -0.19467,0.49552 -0.35412,0.92038 -0.47801,1.27434 -0.10622,0.33625 -0.15002,0.62815 -0.13229,0.87591 0.0177,0.23007 0.13231,0.51331 0.34468,0.84956 0.21237,0.31856 0.49562,0.61045 0.84956,0.87592 0.35396,0.26546 0.75232,0.47789 1.19476,0.63717 0.46013,0.17697 0.91148,0.26562 1.35392,0.26562 0.46014,0 0.80502,-0.15946 1.03508,-0.47801 0.23007,-0.33625 0.49548,-0.8849 0.79634,-1.6459 l 1.1684,-3.07939 c 1.76975,-4.58366 4.05247,-8.72475 6.84868,-12.42354 0.83178,-1.11494 1.62801,-2.0263 2.389,-2.7342 0.77869,-0.7079 1.43381,-1.06195 1.96474,-1.06195 0.54862,0 1.11511,0.25676 1.69912,0.76998 l 0.58394,0.50436 c 0.19468,0.15928 0.40711,0.23875 0.63717,0.23875 0.83179,0 1.53937,-0.49515 2.12339,-1.48621 0.26546,-0.44244 0.46006,-0.91163 0.58394,-1.40715 0.14159,-0.51323 0.19508,-1.15052 0.15968,-1.91151 -0.0177,-0.761 -0.30093,-1.45127 -0.84956,-2.07068 -0.54862,-0.63711 -1.27455,-0.9555 -2.17713,-0.9555 -0.88487,0 -1.64543,0.18595 -2.28255,0.55759 -2.19449,1.34502 -4.44206,4.08825 -6.74274,8.22947 l -1.03559,1.96423 c -0.0885,0.35394 -0.34524,0.71665 -0.76998,1.0883 -0.0354,-0.15927 0.0181,-0.54847 0.15968,-1.16789 0.0708,-0.30086 0.22107,-0.76086 0.45113,-1.38027 0.23008,-0.63712 0.45982,-1.3009 0.68988,-1.9911 0.23007,-0.7079 0.42519,-1.42465 0.58447,-2.15025 0.17694,-0.7256 0.25641,-1.44236 0.23874,-2.15026 0,-0.7079 -0.33622,-1.38033 -1.00872,-2.01745 -0.31856,-0.30086 -0.70776,-0.53978 -1.16789,-0.71675 -0.44244,-0.17697 -1.07107,-0.26562 -1.88516,-0.26562 z m -157.725254,0.003 c 1.345647,-0.0384 2.734676,0.39558 3.354834,0.70487 1.486242,3.30201 4.401015,6.50732 8.909534,8.61136 -0.379415,0.61894 -0.733432,1.22871 -1.061951,1.82986 -0.08056,0.1505 -0.159036,0.29967 -0.236161,0.447 -5.076364,0.31203 -9.108324,-0.41155 -11.714013,-1.7632 -2.72638,-1.41425 -3.887487,-3.34125 -3.472657,-5.76347 0.502794,-2.93588 1.987808,-3.78527 3.648356,-4.01939 0.188087,-0.0265 0.379823,-0.0415 0.572058,-0.047 z m 58.628463,3.52744 c 1.22113,0 1.831413,0.87621 1.831413,2.62826 0,1.75205 -0.999996,3.58394 -2.999817,5.49527 -2.176795,2.03522 -4.742751,3.20332 -7.698238,3.50418 0.884876,-3.00858 2.052982,-5.6102 3.504179,-7.80469 1.71666,-2.54844 3.504223,-3.82302 5.362463,-3.82302 z m 24.055901,0 c 1.22113,0 1.83192,0.87621 1.83192,2.62826 0,1.75205 -0.99999,3.58394 -2.99981,5.49527 -2.1768,2.03522 -4.74327,3.20332 -7.698757,3.50418 0.884873,-3.00858 2.052977,-5.6102 3.504177,-7.80469 1.71666,-2.54844 3.50423,-3.82302 5.36247,-3.82302 z m 59.90435,0 c 1.22113,0 1.83193,0.87621 1.83193,2.62826 0,1.75205 -1,3.58394 -2.99982,5.49527 -2.1768,2.03522 -4.74327,3.20332 -7.69875,3.50418 0.88488,-3.00858 2.05298,-5.6102 3.50418,-7.80469 1.71666,-2.54844 3.50422,-3.82302 5.36246,-3.82302 z m -124.45752,6.83214 c 0.560016,0.0521 1.607308,0.12281 3.14141,0.21291 1.550911,0.0956 2.727107,0.25516 3.528983,0.47904 0.634363,0.28101 1.202342,0.62433 1.703256,1.02939 1.660459,1.3596 2.130784,3.05769 1.4118,5.09426 -0.801555,2.23301 -2.55281,3.89602 -5.253943,4.98936 -1.177592,0.47271 -2.395455,0.75531 -3.654041,0.84801 -1.258591,0.0927 -2.409688,-0.0308 -3.453019,-0.37052 -1.043331,-0.33972 -1.769106,-0.91103 -2.177645,-1.7141 -0.386234,-0.81441 -0.376279,-1.78846 0.02997,-2.92179 0.834437,-2.33399 2.408688,-4.88253 4.723226,-7.64656 z" />
  </g>
</svg>
